<mxfile host="Electron" modified="2023-10-24T08:52:35.537Z" agent="Mozilla/5.0 (X11; Linux x86_64) AppleWebKit/537.36 (KHTML, like Gecko) draw.io/22.0.3 Chrome/114.0.5735.289 Electron/25.9.2 Safari/537.36" etag="PUbBqnEI6XBXKBTA7OdO" version="22.0.3" type="device">
  <diagram name="Page-1" id="2c0d36ab-eaac-3732-788b-9136903baeff">
    <mxGraphModel dx="1400" dy="905" grid="1" gridSize="10" guides="1" tooltips="1" connect="1" arrows="1" fold="1" page="1" pageScale="1.5" pageWidth="1169" pageHeight="827" background="none" math="0" shadow="0">
      <root>
        <mxCell id="0" />
        <mxCell id="1" parent="0" />
        <mxCell id="vsn6FsbhMR-Gm_674OU5-3" value="" style="edgeStyle=none;curved=1;rounded=0;orthogonalLoop=1;jettySize=auto;html=1;fontSize=12;startSize=8;endSize=8;" edge="1" parent="1" source="vsn6FsbhMR-Gm_674OU5-1" target="vsn6FsbhMR-Gm_674OU5-2">
          <mxGeometry relative="1" as="geometry" />
        </mxCell>
        <mxCell id="vsn6FsbhMR-Gm_674OU5-5" value="" style="edgeStyle=none;curved=1;rounded=0;orthogonalLoop=1;jettySize=auto;html=1;fontSize=12;startSize=8;endSize=8;" edge="1" parent="1" source="vsn6FsbhMR-Gm_674OU5-1" target="vsn6FsbhMR-Gm_674OU5-4">
          <mxGeometry relative="1" as="geometry" />
        </mxCell>
        <mxCell id="vsn6FsbhMR-Gm_674OU5-7" value="" style="edgeStyle=none;curved=1;rounded=0;orthogonalLoop=1;jettySize=auto;html=1;fontSize=12;startSize=8;endSize=8;" edge="1" parent="1" source="vsn6FsbhMR-Gm_674OU5-1" target="vsn6FsbhMR-Gm_674OU5-6">
          <mxGeometry relative="1" as="geometry" />
        </mxCell>
        <mxCell id="vsn6FsbhMR-Gm_674OU5-9" value="" style="edgeStyle=none;curved=1;rounded=0;orthogonalLoop=1;jettySize=auto;html=1;fontSize=12;startSize=8;endSize=8;" edge="1" parent="1" source="vsn6FsbhMR-Gm_674OU5-1" target="vsn6FsbhMR-Gm_674OU5-8">
          <mxGeometry relative="1" as="geometry" />
        </mxCell>
        <mxCell id="vsn6FsbhMR-Gm_674OU5-11" value="" style="edgeStyle=none;curved=1;rounded=0;orthogonalLoop=1;jettySize=auto;html=1;fontSize=12;startSize=8;endSize=8;" edge="1" parent="1" source="vsn6FsbhMR-Gm_674OU5-1" target="vsn6FsbhMR-Gm_674OU5-10">
          <mxGeometry relative="1" as="geometry" />
        </mxCell>
        <mxCell id="vsn6FsbhMR-Gm_674OU5-1" value="project 1" style="rounded=0;whiteSpace=wrap;html=1;fontSize=16;fillColor=#1ba1e2;fontColor=#ffffff;strokeColor=#006EAF;" vertex="1" parent="1">
          <mxGeometry x="220" y="60" width="120" height="60" as="geometry" />
        </mxCell>
        <mxCell id="vsn6FsbhMR-Gm_674OU5-13" value="" style="edgeStyle=none;curved=1;rounded=0;orthogonalLoop=1;jettySize=auto;html=1;fontSize=12;startSize=8;endSize=8;" edge="1" parent="1" source="vsn6FsbhMR-Gm_674OU5-2" target="vsn6FsbhMR-Gm_674OU5-12">
          <mxGeometry relative="1" as="geometry" />
        </mxCell>
        <mxCell id="vsn6FsbhMR-Gm_674OU5-16" value="" style="edgeStyle=none;curved=1;rounded=0;orthogonalLoop=1;jettySize=auto;html=1;fontSize=12;startSize=8;endSize=8;" edge="1" parent="1" source="vsn6FsbhMR-Gm_674OU5-2" target="vsn6FsbhMR-Gm_674OU5-15">
          <mxGeometry relative="1" as="geometry" />
        </mxCell>
        <mxCell id="vsn6FsbhMR-Gm_674OU5-2" value="Over Mij" style="whiteSpace=wrap;html=1;fontSize=16;rounded=0;fillColor=#008a00;fontColor=#ffffff;strokeColor=#005700;" vertex="1" parent="1">
          <mxGeometry x="220" y="240" width="120" height="60" as="geometry" />
        </mxCell>
        <mxCell id="vsn6FsbhMR-Gm_674OU5-30" value="" style="edgeStyle=none;curved=1;rounded=0;orthogonalLoop=1;jettySize=auto;html=1;fontSize=12;startSize=8;endSize=8;" edge="1" parent="1" source="vsn6FsbhMR-Gm_674OU5-4" target="vsn6FsbhMR-Gm_674OU5-29">
          <mxGeometry relative="1" as="geometry" />
        </mxCell>
        <mxCell id="vsn6FsbhMR-Gm_674OU5-4" value="Mijn Projecten" style="whiteSpace=wrap;html=1;fontSize=16;rounded=0;fillColor=#008a00;fontColor=#ffffff;strokeColor=#005700;" vertex="1" parent="1">
          <mxGeometry x="500" y="240" width="120" height="60" as="geometry" />
        </mxCell>
        <mxCell id="vsn6FsbhMR-Gm_674OU5-37" value="" style="edgeStyle=none;curved=1;rounded=0;orthogonalLoop=1;jettySize=auto;html=1;fontSize=12;startSize=8;endSize=8;" edge="1" parent="1" source="vsn6FsbhMR-Gm_674OU5-6" target="vsn6FsbhMR-Gm_674OU5-36">
          <mxGeometry relative="1" as="geometry" />
        </mxCell>
        <mxCell id="vsn6FsbhMR-Gm_674OU5-6" value="Filmpje" style="whiteSpace=wrap;html=1;fontSize=16;rounded=0;fillColor=#008a00;fontColor=#ffffff;strokeColor=#005700;" vertex="1" parent="1">
          <mxGeometry x="760" y="240" width="120" height="60" as="geometry" />
        </mxCell>
        <mxCell id="vsn6FsbhMR-Gm_674OU5-8" value="interview" style="whiteSpace=wrap;html=1;fontSize=16;rounded=0;fillColor=#008a00;fontColor=#ffffff;strokeColor=#005700;" vertex="1" parent="1">
          <mxGeometry x="970" y="240" width="120" height="60" as="geometry" />
        </mxCell>
        <mxCell id="vsn6FsbhMR-Gm_674OU5-45" value="" style="edgeStyle=none;curved=1;rounded=0;orthogonalLoop=1;jettySize=auto;html=1;fontSize=12;startSize=8;endSize=8;" edge="1" parent="1" source="vsn6FsbhMR-Gm_674OU5-10" target="vsn6FsbhMR-Gm_674OU5-44">
          <mxGeometry relative="1" as="geometry" />
        </mxCell>
        <mxCell id="vsn6FsbhMR-Gm_674OU5-10" value="contact" style="whiteSpace=wrap;html=1;fontSize=16;rounded=0;fillColor=#008a00;fontColor=#ffffff;strokeColor=#005700;" vertex="1" parent="1">
          <mxGeometry x="1190" y="240" width="120" height="60" as="geometry" />
        </mxCell>
        <mxCell id="vsn6FsbhMR-Gm_674OU5-18" value="" style="edgeStyle=none;curved=1;rounded=0;orthogonalLoop=1;jettySize=auto;html=1;fontSize=12;startSize=8;endSize=8;" edge="1" parent="1" source="vsn6FsbhMR-Gm_674OU5-12" target="vsn6FsbhMR-Gm_674OU5-17">
          <mxGeometry relative="1" as="geometry" />
        </mxCell>
        <mxCell id="vsn6FsbhMR-Gm_674OU5-20" value="" style="edgeStyle=none;curved=1;rounded=0;orthogonalLoop=1;jettySize=auto;html=1;fontSize=12;startSize=8;endSize=8;" edge="1" parent="1" source="vsn6FsbhMR-Gm_674OU5-12" target="vsn6FsbhMR-Gm_674OU5-19">
          <mxGeometry relative="1" as="geometry" />
        </mxCell>
        <mxCell id="vsn6FsbhMR-Gm_674OU5-22" value="" style="edgeStyle=none;curved=1;rounded=0;orthogonalLoop=1;jettySize=auto;html=1;fontSize=12;startSize=8;endSize=8;exitX=1;exitY=0.75;exitDx=0;exitDy=0;" edge="1" parent="1" source="vsn6FsbhMR-Gm_674OU5-12" target="vsn6FsbhMR-Gm_674OU5-21">
          <mxGeometry relative="1" as="geometry" />
        </mxCell>
        <mxCell id="vsn6FsbhMR-Gm_674OU5-12" value="Hobbys" style="whiteSpace=wrap;html=1;fontSize=16;rounded=0;fillColor=#d80073;fontColor=#ffffff;strokeColor=#A50040;" vertex="1" parent="1">
          <mxGeometry x="50" y="310" width="120" height="60" as="geometry" />
        </mxCell>
        <mxCell id="vsn6FsbhMR-Gm_674OU5-26" value="" style="edgeStyle=none;curved=1;rounded=0;orthogonalLoop=1;jettySize=auto;html=1;fontSize=12;startSize=8;endSize=8;" edge="1" parent="1" source="vsn6FsbhMR-Gm_674OU5-15" target="vsn6FsbhMR-Gm_674OU5-25">
          <mxGeometry relative="1" as="geometry" />
        </mxCell>
        <mxCell id="vsn6FsbhMR-Gm_674OU5-28" value="" style="edgeStyle=none;curved=1;rounded=0;orthogonalLoop=1;jettySize=auto;html=1;fontSize=12;startSize=8;endSize=8;" edge="1" parent="1" source="vsn6FsbhMR-Gm_674OU5-15" target="vsn6FsbhMR-Gm_674OU5-27">
          <mxGeometry relative="1" as="geometry" />
        </mxCell>
        <mxCell id="vsn6FsbhMR-Gm_674OU5-15" value="Opleiding" style="whiteSpace=wrap;html=1;fontSize=16;fillColor=#d80073;strokeColor=#A50040;fontColor=#ffffff;rounded=0;" vertex="1" parent="1">
          <mxGeometry x="360" y="330" width="120" height="60" as="geometry" />
        </mxCell>
        <mxCell id="vsn6FsbhMR-Gm_674OU5-17" value="Gamen" style="whiteSpace=wrap;html=1;fontSize=16;fillColor=#fa6800;strokeColor=#C73500;fontColor=#000000;rounded=0;" vertex="1" parent="1">
          <mxGeometry y="410" width="120" height="60" as="geometry" />
        </mxCell>
        <mxCell id="vsn6FsbhMR-Gm_674OU5-21" value="Films" style="whiteSpace=wrap;html=1;fontSize=16;fillColor=#fa6800;strokeColor=#C73500;fontColor=#000000;rounded=0;" vertex="1" parent="1">
          <mxGeometry x="200" y="360" width="120" height="60" as="geometry" />
        </mxCell>
        <mxCell id="vsn6FsbhMR-Gm_674OU5-23" value="" style="edgeStyle=none;curved=1;rounded=0;orthogonalLoop=1;jettySize=auto;html=1;fontSize=12;startSize=8;endSize=8;" edge="1" parent="1" source="vsn6FsbhMR-Gm_674OU5-12" target="vsn6FsbhMR-Gm_674OU5-19">
          <mxGeometry relative="1" as="geometry">
            <mxPoint x="239" y="400" as="sourcePoint" />
            <mxPoint x="371" y="500" as="targetPoint" />
          </mxGeometry>
        </mxCell>
        <mxCell id="vsn6FsbhMR-Gm_674OU5-19" value="Lezen" style="whiteSpace=wrap;html=1;fontSize=16;fillColor=#fa6800;strokeColor=#C73500;fontColor=#000000;rounded=0;" vertex="1" parent="1">
          <mxGeometry x="130" y="440" width="120" height="60" as="geometry" />
        </mxCell>
        <mxCell id="vsn6FsbhMR-Gm_674OU5-25" value="Nu" style="whiteSpace=wrap;html=1;fontSize=16;fillColor=#fa6800;strokeColor=#C73500;fontColor=#000000;rounded=0;" vertex="1" parent="1">
          <mxGeometry x="330" y="440" width="120" height="60" as="geometry" />
        </mxCell>
        <mxCell id="vsn6FsbhMR-Gm_674OU5-27" value="VO" style="whiteSpace=wrap;html=1;fontSize=16;fillColor=#fa6800;strokeColor=#C73500;fontColor=#000000;rounded=0;" vertex="1" parent="1">
          <mxGeometry x="420" y="520" width="120" height="60" as="geometry" />
        </mxCell>
        <mxCell id="vsn6FsbhMR-Gm_674OU5-32" value="" style="edgeStyle=none;curved=1;rounded=0;orthogonalLoop=1;jettySize=auto;html=1;fontSize=12;startSize=8;endSize=8;" edge="1" parent="1" source="vsn6FsbhMR-Gm_674OU5-29" target="vsn6FsbhMR-Gm_674OU5-31">
          <mxGeometry relative="1" as="geometry" />
        </mxCell>
        <mxCell id="vsn6FsbhMR-Gm_674OU5-35" value="" style="edgeStyle=none;curved=1;rounded=0;orthogonalLoop=1;jettySize=auto;html=1;fontSize=12;startSize=8;endSize=8;" edge="1" parent="1" source="vsn6FsbhMR-Gm_674OU5-29" target="vsn6FsbhMR-Gm_674OU5-34">
          <mxGeometry relative="1" as="geometry" />
        </mxCell>
        <mxCell id="vsn6FsbhMR-Gm_674OU5-29" value="Placeholder" style="whiteSpace=wrap;html=1;fontSize=16;fillColor=#d80073;strokeColor=#A50040;fontColor=#ffffff;rounded=0;" vertex="1" parent="1">
          <mxGeometry x="550" y="350" width="120" height="60" as="geometry" />
        </mxCell>
        <mxCell id="vsn6FsbhMR-Gm_674OU5-31" value="czkawka" style="whiteSpace=wrap;html=1;fontSize=16;fillColor=#fa6800;strokeColor=#C73500;fontColor=#000000;rounded=0;" vertex="1" parent="1">
          <mxGeometry x="490" y="420" width="120" height="60" as="geometry" />
        </mxCell>
        <mxCell id="vsn6FsbhMR-Gm_674OU5-34" value="ytdlp" style="whiteSpace=wrap;html=1;fontSize=16;fillColor=#fa6800;strokeColor=#C73500;fontColor=#000000;rounded=0;" vertex="1" parent="1">
          <mxGeometry x="620" y="430" width="120" height="60" as="geometry" />
        </mxCell>
        <mxCell id="vsn6FsbhMR-Gm_674OU5-39" value="" style="edgeStyle=none;curved=1;rounded=0;orthogonalLoop=1;jettySize=auto;html=1;fontSize=12;startSize=8;endSize=8;" edge="1" parent="1" source="vsn6FsbhMR-Gm_674OU5-36" target="vsn6FsbhMR-Gm_674OU5-38">
          <mxGeometry relative="1" as="geometry" />
        </mxCell>
        <mxCell id="vsn6FsbhMR-Gm_674OU5-36" value="video" style="whiteSpace=wrap;html=1;fontSize=16;fillColor=#d80073;strokeColor=#A50040;fontColor=#ffffff;rounded=0;" vertex="1" parent="1">
          <mxGeometry x="770" y="340" width="120" height="60" as="geometry" />
        </mxCell>
        <mxCell id="vsn6FsbhMR-Gm_674OU5-38" value="bottom text" style="whiteSpace=wrap;html=1;fontSize=16;fillColor=#fa6800;strokeColor=#C73500;fontColor=#000000;rounded=0;" vertex="1" parent="1">
          <mxGeometry x="770" y="440" width="120" height="60" as="geometry" />
        </mxCell>
        <mxCell id="vsn6FsbhMR-Gm_674OU5-44" value="form" style="whiteSpace=wrap;html=1;fontSize=16;fillColor=#d80073;strokeColor=#A50040;fontColor=#ffffff;rounded=0;" vertex="1" parent="1">
          <mxGeometry x="1210" y="340" width="120" height="60" as="geometry" />
        </mxCell>
      </root>
    </mxGraphModel>
  </diagram>
</mxfile>
